PathFileType	4	(X/Y/Z)	Patient4_TMGait_0pt7_02_right_46.trc.trc
DataRate	CameraRate	NumFrames	NumMarkers	Units	OrigDataRate	OrigDataStartFrame	OrigNumFrames
86.419753086420	86.419753086420	4	33	mm	86.419753086420	18	       141
Frame#	Time	Sacral			L.Shoulder			Chest			R.Shoulder			Neck			R.ASIS			L.ASIS			R.Thigh.Superior			R.Thigh.Lateral			R.Thigh.Inferior			R.Patella			L.Thigh.Superior			L.Thigh.Lateral			L.Thigh.Inferior			L.Patella			L.Shank.Superior			L.Shank.Lateral			L.Shank.Inferior			R.Shank.Superior			R.Shank.Lateral			R.Shank.Inferior			R.Heel			R.Midfoot.Superior			R.Midfoot.Lateral			R.Toe			L.Heel			L.Midfoot.Lateral			L.Midfoot.Superior			L.Toe			L.Elbow			L.Wrist			R.Elbow			R.Wrist			
		X1	Y1	Z1	X2	Y2	Z2	X3	Y3	Z3	X4	Y4	Z4	X5	Y5	Z5	X6	Y6	Z6	X7	Y7	Z7	X8	Y8	Z8	X9	Y9	Z9	X10	Y10	Z10	X11	Y11	Z11	X12	Y12	Z12	X13	Y13	Z13	X14	Y14	Z14	X15	Y15	Z15	X16	Y16	Z16	X17	Y17	Z17	X18	Y18	Z18	X19	Y19	Z19	X20	Y20	Z20	X21	Y21	Z21	X22	Y22	Z22	X23	Y23	Z23	X24	Y24	Z24	X25	Y25	Z25	X26	Y26	Z26	X27	Y27	Z27	X28	Y28	Z28	X29	Y29	Z29	X30	Y30	Z30	X31	Y31	Z31	X32	Y32	Z32	X33	Y33	Z33	

18	52.266714285714	746.522724231323	1007.465531221243	432.322184928412	959.224302987072	1425.451501437368	245.464615719428	1053.362888944941	1351.342981806942	410.114798880376	970.358448833472	1436.543215677340	579.025283136239	957.677761075803	1486.837789810584	396.947929028980	969.568797556148	938.083269726190	555.219636487940	962.789902599185	957.787631462700	278.555175745002	1061.616202440462	793.767265799712	525.376908294164	1041.267392030810	669.946997290061	607.132100172328	1136.252608539415	644.388385831309	529.313797585114	1180.110575830009	550.444267100417	553.851912638235	981.907460295981	737.631374350727	311.788959115593	876.314571562668	634.919709904742	247.617157589579	941.586652054652	545.268431568730	313.696741202969	931.009052877886	477.304933756999	323.843762169843	898.530509306267	408.892837161695	314.468037925611	800.304639540748	303.770142538788	260.343638414301	834.981215425197	188.746302042331	334.188198926074	1144.086280398428	458.122482526652	562.574848462944	1062.932299719212	361.630459622937	623.918216707864	1110.690271004377	261.339450741572	576.577544856802	979.923077143089	95.230106895911	546.164666993223	1148.657991059718	145.109783443886	593.402260533911	1058.772367139095	82.753594575305	623.341428238435	1263.908784983710	93.285780732414	627.840168019533	694.039650777848	39.214903728526	372.344777164416	768.789228315350	35.469676074474	292.856528498830	852.176509571265	95.591497806445	321.202266299187	980.713848597532	41.492765909709	293.822150475015	1009.214903618306	1097.645227628378	98.769831067579	1261.410027217766	1070.793660303708	137.112290443211	870.200440435095	1109.738393019679	714.235642463640	873.110926577826	847.307663047326	740.844018046520	
19	52.278285714286	748.926945707154	1005.929132390705	434.132432564583	959.331443319289	1424.879853710674	247.491031431859	1054.477444131409	1350.408924278552	411.330397559224	972.191729973750	1435.070484622256	580.828803421790	958.331384666991	1485.641180221153	398.902373909261	972.502886040552	936.118380312429	555.949248876483	964.472541928327	956.587648937009	279.199347744898	1061.174497682828	786.593175423409	527.286076441867	1036.278348066196	662.976440254253	608.270722190985	1130.451985800507	635.417362784610	530.130123814592	1172.618393240485	543.684947530487	553.425759923632	980.889643516110	735.758441737653	312.244229118558	873.465579892291	634.454891190876	247.996926720563	937.391802186735	543.861957338008	313.743277520753	926.005723403284	475.973528461334	323.778853856156	893.093941963367	407.948166830932	314.484971536132	793.826880013978	303.669467782806	260.430687661966	827.671738830298	188.310132664658	334.173148974370	1140.417301602860	451.805299874259	562.786539719057	1065.056254481704	351.331693892345	625.236605041660	1117.663877337991	253.383210722291	577.263344651118	995.349249217617	80.681558094309	548.256391644645	1162.352698416617	138.656495763319	593.644610203469	1075.719085958236	72.000802249950	624.552335881556	1280.577236406859	92.262671850966	626.697730400074	685.881204186339	39.171209217964	372.345605142262	760.625791987687	35.430191513829	292.904294939792	844.046971682241	95.504100810337	321.227675318773	972.549049902010	41.273004377774	293.806632027881	1011.936441386305	1098.775939394008	99.115320304304	1264.048570465852	1086.791960677098	140.042280455867	865.045197288287	1111.716369795876	716.557505014549	854.986656921984	849.526960196615	744.558867184557	
20	52.289857142857	751.569563644513	1004.059790022344	436.297136598375	959.307547564832	1424.030345269458	249.656995265545	1055.637729556114	1349.341246282769	412.665389165131	974.049307785926	1433.481051781947	582.771678839113	958.987127515836	1484.250010471827	400.989214334040	975.773806027210	934.021005639838	556.820358279010	966.382158036369	955.180494271732	280.094203700814	1060.979745237473	779.106826969049	529.329458359873	1031.295930369122	655.863909641951	609.289633679000	1124.571411204994	626.397193425880	530.664159117682	1164.923895585022	536.684638816497	552.430629614546	980.217090094682	733.728963950643	312.769292102455	870.943254930266	633.858779285156	248.579277193445	933.639782585652	542.337406514054	313.930543366812	921.476330546075	474.462964247707	323.859863497643	888.014905379080	406.854413471846	314.647683091233	787.564600691887	303.556480056195	260.636548704408	820.455814012230	187.802593619504	334.210887297735	1136.259989191867	445.269336170427	562.525365390051	1066.280763285881	341.486722301866	626.102173603524	1122.905049604054	245.801013355835	577.319897437282	1007.886290568708	68.186225146997	550.065285225972	1173.585466220751	132.473184497417	592.996117863419	1089.792284876316	62.531788826260	625.179287131382	1294.161830411492	90.251180362843	624.090661221133	677.712128412144	39.104056007841	372.341059663267	752.473013900744	35.372591651927	292.950474927836	835.923390884832	95.409995932960	321.264770592631	964.412438304142	41.040260826848	293.777702736291	1014.242339537588	1099.553261368155	99.445352726943	1265.384548325969	1101.537738527377	143.024698334062	859.526359673575	1113.998698383339	719.031038936221	838.584141380001	852.633172067243	747.481528759052	
21	52.301428571429	754.405313454520	1001.926461419266	438.796622041103	959.182806493879	1422.919562928024	251.935115414999	1056.846799654951	1348.186533992116	414.132342385732	975.889735470130	1431.830405376845	584.843616881715	959.658831428353	1482.711619646417	403.198111344618	979.281365925940	931.858437593288	557.866583806458	968.517672355739	953.631661248626	281.313190890803	1061.101691130141	771.666198950400	531.472478749618	1026.612471232389	648.959162533795	610.179256557364	1118.944295345013	617.773782520073	530.958995642228	1157.404752996241	529.799121291225	551.012606080511	979.941055782423	731.581685530872	313.417707010183	868.811878451165	633.144869292332	249.408967010091	930.411708992052	540.707386784117	314.303816260386	917.506300422588	472.771915584370	324.130033432370	883.348290942455	405.617566546989	314.991208333385	781.569331966654	303.466485815797	260.984828393089	813.359014166051	187.248001856254	334.311035780032	1131.894237151212	438.783987732441	561.883158952397	1066.626577931373	332.385910237139	626.496273964798	1126.354074138841	238.747405714334	576.779805634191	1017.117820059017	57.980067332732	551.493474713952	1182.075832244175	126.570620257831	591.473778303060	1100.536189050755	54.499884309919	625.218124336746	1304.382185723925	87.088388397387	620.223529635822	669.533520079527	39.065679435517	372.320392782866	744.335679925837	35.316584803580	292.990540427282	827.824903018171	95.316791138373	321.305938807670	956.310178222932	40.797280913052	293.732448529398	1016.096758238849	1099.924223698836	99.790994295635	1265.557685554909	1114.883523789643	146.029095746305	853.835877662785	1116.530620750879	721.624680832901	823.877766237785	856.301787182432	749.714684374144	
